#!OML:ASF E:\motion texture\Top Level 1\Subject 1\Session 1\male.ASF
:FULLY-SPECIFIED
:DEGREES
512
root -24.0686 17.9578 0.168417 858.108 -77.7645 -848.885
lowerback -4.29806 0.943105 8.9298
upperback -1.79828 0.779735 2.22842
thorax 0.639089 0.320535 -2.65691
lowerneck -14.2154 -10.1695 -12.9322
upperneck 14.7458 -12.7647 8.71091
head 8.31314 -6.06339 3.39958
rclavicle 1.92759e-014 -3.32964e-014
rhumerus -30.8919 6.63095 -84.7413
rradius 70.4913
rwrist 13.3817
rhand -16.6513 -23.135
rfingers 7.12502
rthumb 9.5718 -412.898
lclavicle 1.92759e-014 -3.32964e-014
lhumerus -52.3241 11.0309 78.8178
lradius 62.7338
lwrist 0.757733
lhand -18.4111 36.5692
lfingers 7.12502
lthumb 7.87358 66.4026
rfemur 0.0361894 5.20393 34.358
rtibia 16.5208
rfoot -11.7918 -1.52822
rtoes 10.5507
lfemur -31.8232 4.02035 -5.41117
ltibia 24.2389
lfoot -4.88912 7.32899
ltoes -13.087
513
root -24.2255 17.9448 0.170846 858.922 -77.6811 -849.637
lowerback -4.36451 0.968487 8.88828
upperback -1.8325 0.811607 2.16256
thorax 0.644648 0.33616 -2.69993
lowerneck -14.2482 -10.1506 -12.9294
upperneck 14.7479 -12.7345 8.71132
head 8.31599 -6.04795 3.40252
rclavicle 1.67103e-014 7.33515e-014
rhumerus -30.7503 6.71907 -84.6345
rradius 71.6423
rwrist 13.6733
rhand -16.7551 -22.9994
rfingers 7.12502
rthumb 9.47169 -412.767
lclavicle 1.67103e-014 7.33515e-014
lhumerus -52.3891 10.8728 79.0055
lradius 63.5552
lwrist 0.721308
lhand -18.5395 36.6602
lfingers 7.12502
lthumb 7.74966 66.4982
rfemur 0.16677 5.20964 34.1935
rtibia 17.1135
rfoot -11.8083 -1.34059
rtoes 9.78336
lfemur -31.7204 3.5551 -5.34751
ltibia 23.155
lfoot -4.71503 7.49722
ltoes -12.7569
514
root -24.3835 17.932 0.173897 859.708 -77.6126 -850.377
lowerback -4.42391 0.987445 8.8357
upperback -1.86274 0.836211 2.09569
thorax 0.649487 0.348376 -2.73827
lowerneck -14.2799 -10.1303 -12.924
upperneck 14.7506 -12.7029 8.70974
head 8.31837 -6.03189 3.40468
rclavicle 1.45361e-014 -1.66979e-014
rhumerus -30.5904 6.81391 -84.5258
rradius 72.7784
rwrist 13.9753
rhand -16.8585 -22.8665
rfingers 7.12502
rthumb 9.37184 -412.638
lclavicle 1.45361e-014 -1.66979e-014
lhumerus -52.3821 10.6815 79.2438
lradius 64.3488
lwrist 0.640461
lhand -18.6618 36.7329
lfingers 7.12502
lthumb 7.6316 66.5752
rfemur 0.267903 5.20951 34.0085
rtibia 17.7732
rfoot -11.7716 -1.15224
rtoes 8.97516
lfemur -31.5997 3.06439 -5.30306
ltibia 22.179
lfoot -4.53359 7.65922
ltoes -12.3914
515
root -24.5425 17.9194 0.177484 860.473 -77.5617 -851.113
lowerback -4.47637 0.999218 8.76836
upperback -1.88867 0.852709 2.02752
thorax 0.653885 0.356821 -2.77022
lowerneck -14.3106 -10.1082 -12.9168
upperneck 14.7524 -12.6692 8.70806
head 8.3199 -6.01483 3.4069
rclavicle 9.80257e-015 -7.15625e-015
rhumerus -30.4085 6.91752 -84.4156
rradius 73.8968
rwrist 14.2887
rhand -16.966 -22.7278
rfingers 7.12502
rthumb 9.26811 -412.504
lclavicle 9.80257e-015 -7.15625e-015
lhumerus -52.3012 10.4574 79.5315
lradius 65.1128
lwrist 0.518351
lhand -18.7874 36.7742
lfingers 7.12502
lthumb 7.51034 66.6209
rfemur 0.336303 5.20446 33.8017
rtibia 18.5028
rfoot -11.6762 -0.967923
rtoes 8.16765
lfemur -31.4651 2.55676 -5.28542
ltibia 21.3158
lfoot -4.34719 7.80676
ltoes -11.9837
516
root -24.7022 17.9069 0.181568 861.225 -77.5306 -851.852
lowerback -4.52105 1.0035 8.68412
upperback -1.91106 0.860966 1.95746
thorax 0.656512 0.361372 -2.79525
lowerneck -14.339 -10.0844 -12.9071
upperneck 14.7542 -12.6337 8.70474
head 8.32055 -5.99701 3.40857
rclavicle 1.09332e-015 9.54166e-015
rhumerus -30.2054 7.0309 -84.3046
rradius 74.9969
rwrist 14.613
rhand -17.0766 -22.587
rfingers 7.12502
rthumb 9.16139 -412.368
lclavicle 1.09332e-015 9.54166e-015
lhumerus -52.1481 10.1983 79.867
lradius 65.8471
lwrist 0.356975
lhand -18.9082 36.8019
lfingers 7.12502
lthumb 7.39375 66.6527
rfemur 0.369092 5.19301 33.5715
rtibia 19.3044
rfoot -11.5179 -0.790841
rtoes 7.35353
lfemur -31.3188 2.03945 -5.30134
ltibia 20.5679
lfoot -4.15843 7.93257
ltoes -11.5343
517
root -24.8628 17.8946 0.18612 861.978 -77.5183 -852.611
lowerback -4.55621 1.00083 8.58141
upperback -1.93038 0.861991 1.88479
thorax 0.656019 0.362484 -2.81319
lowerneck -14.3659 -10.0586 -12.894
upperneck 14.7577 -12.5961 8.69871
head 8.32085 -5.97833 3.40919
rclavicle 6.59717e-015 -4.49253e-014
rhumerus -29.9808 7.15602 -84.1938
rradius 76.0775
rwrist 14.9481
rhand -17.1906 -22.4431
rfingers 7.12502
rthumb 9.05147 -412.229
lclavicle 6.59717e-015 -4.49253e-014
lhumerus -51.9246 9.90336 80.2478
lradius 66.552
lwrist 0.159173
lhand -19.0304 36.8124
lfingers 7.12502
lthumb 7.27579 66.6673
rfemur 0.363669 5.17603 33.3162
rtibia 20.1807
rfoot -11.2893 -0.625223
rtoes 6.58153
lfemur -31.1606 1.52246 -5.35647
ltibia 19.9355
lfoot -3.96918 8.02974
ltoes -11.044
518
root -25.024 17.8825 0.191106 862.739 -77.5261 -853.395
lowerback -4.58235 0.990591 8.45928
upperback -1.945 0.854903 1.80908
thorax 0.654292 0.359854 -2.82398
lowerneck -14.3943 -10.0311 -12.8768
upperneck 14.7624 -12.5563 8.68959
head 8.32108 -5.95861 3.40844
rclavicle 1.37907e-014 -2.127e-014
rhumerus -29.7297 7.29492 -84.0841
rradius 77.1364
rwrist 15.294
rhand -17.3094 -22.2907
rfingers 7.12502
rthumb 8.93679 -412.081
lclavicle 1.37907e-014 -2.127e-014
lhumerus -51.6284 9.57267 80.6714
lradius 67.2271
lwrist -0.0713804
lhand -19.1549 36.8072
lfingers 7.12502
lthumb 7.15562 66.6662
rfemur 0.31787 5.15195 33.035
rtibia 21.1333
rfoot -10.9882 -0.476255
rtoes 5.85656
lfemur -30.9908 1.01378 -5.45653
ltibia 19.418
lfoot -3.78362 8.0918
ltoes -10.5156
519
root -25.1858 17.8708 0.196463 863.515 -77.5538 -854.213
lowerback -4.59834 0.972944 8.31657
upperback -1.9556 0.840082 1.72997
thorax 0.650048 0.353608 -2.82735
lowerneck -14.4207 -10.0003 -12.8579
upperneck 14.7674 -12.5129 8.68128
head 8.32059 -5.93714 3.40832
rclavicle -1.29955e-014 5.04913e-014
rhumerus -29.4536 7.44915 -83.9762
rradius 78.1739
rwrist 15.6491
rhand -17.4346 -22.147
rfingers 7.12502
rthumb 8.81594 -411.943
lclavicle -1.29955e-014 5.04913e-014
lhumerus -51.2624 9.20414 81.1346
lradius 67.8744
lwrist -0.331575
lhand -19.2787 36.7891
lfingers 7.12502
lthumb 7.0361 66.6521
rfemur 0.229332 5.12071 32.7277
rtibia 22.1641
rfoot -10.6213 -0.352285
rtoes 5.15514
lfemur -30.8094 0.521309 -5.60565
ltibia 19.0139
lfoot -3.60438 8.11232
ltoes -9.95082
520
root -25.348 17.8595 0.202119 864.301 -77.6023 -855.062
lowerback -4.60016 0.947125 8.15365
upperback -1.9629 0.816908 1.64737
thorax 0.640248 0.3433 -2.82361
lowerneck -14.444 -9.96649 -12.8355
upperneck 14.7734 -12.4662 8.67091
head 8.31916 -5.91422 3.40761
rclavicle -1.35795e-014 -3.10104e-014
rhumerus -29.1514 7.62002 -83.8711
rradius 79.1867
rwrist 16.0116
rhand -17.5682 -21.9998
rfingers 7.12502
rthumb 8.68709 -411.801
lclavicle -1.35795e-014 -3.10104e-014
lhumerus -50.8306 8.79656 81.6328
lradius 68.4959
lwrist -0.618518
lhand -19.396 36.765
lfingers 7.12502
lthumb 6.92293 66.6318
rfemur 0.0977029 5.07869 32.3961
rtibia 23.2745
rfoot -10.1937 -0.25598
rtoes 4.47084
lfemur -30.6145 0.0539033 -5.80738
ltibia 18.7209
lfoot -3.43508 8.08225
ltoes -9.34872
521
root -25.5105 17.8486 0.208033 865.091 -77.6728 -855.928
lowerback -4.59311 0.912606 7.97229
upperback -1.96746 0.783925 1.56154
thorax 0.627186 0.328237 -2.8135
lowerneck -14.4696 -9.92969 -12.809
upperneck 14.7822 -12.416 8.65846
head 8.31828 -5.88951 3.406
rclavicle 1.58282e-014 -2.38542e-014
rhumerus -28.8185 7.80863 -83.7694
rradius 80.1735
rwrist 16.3809
rhand -17.7107 -21.8584
rfingers 7.12502
rthumb 8.54951 -411.665
lclavicle 1.58282e-014 -2.38542e-014
lhumerus -50.3306 8.35042 82.162
lradius 69.0912
lwrist -0.930976
lhand -19.5031 36.7355
lfingers 7.12502
lthumb 6.81954 66.6057
rfemur -0.0870698 5.02446 32.0423
rtibia 24.4637
rfoot -9.70439 -0.193485
rtoes 3.82708
lfemur -30.416 -0.38595 -6.0604
ltibia 18.5383
lfoot -3.27606 8.00043
ltoes -8.72217
522
root -25.6732 17.8382 0.21418 865.885 -77.7618 -856.814
lowerback -4.5743 0.869637 7.77549
upperback -1.96823 0.741473 1.47288
thorax 0.610489 0.308588 -2.79822
lowerneck -14.4979 -9.88932 -12.7769
upperneck 14.7943 -12.3613 8.64264
head 8.31785 -5.86265 3.40296
rclavicle -3.44146e-014 1.33186e-014
rhumerus -28.4549 8.01734 -83.6725
rradius 81.1347
rwrist 16.7564
rhand -17.8614 -21.7252
rfingers 7.12502
rthumb 8.40409 -411.538
lclavicle -3.44146e-014 1.33186e-014
lhumerus -49.7657 7.86513 82.7175
lradius 69.6628
lwrist -1.25943
lhand -19.6173 36.6799
lfingers 7.12502
lthumb 6.70931 66.5536
rfemur -0.322178 4.95669 31.6695
rtibia 25.7284
rfoot -9.15366 -0.169652
rtoes 3.23712
lfemur -30.2067 -0.792629 -6.36295
ltibia 18.4587
lfoot -3.13065 7.86541
ltoes -8.07227
523
root -25.836 17.8284 0.220552 866.687 -77.8652 -857.724
lowerback -4.54523 0.820648 7.56669
upperback -1.96597 0.692371 1.38145
thorax 0.59056 0.285706 -2.7794
lowerneck -14.5233 -9.84566 -12.7416
upperneck 14.8081 -12.3031 8.62547
head 8.31686 -5.83421 3.3996
rclavicle -1.53313e-014 3.73715e-014
rhumerus -28.0599 8.24438 -83.5803
rradius 82.067
rwrist 17.1387
rhand -18.0233 -21.6006
rfingers 7.12502
rthumb 8.24782 -411.42
lclavicle -1.53313e-014 3.73715e-014
lhumerus -49.1392 7.33775 83.296
lradius 70.2114
lwrist -1.5996
lhand -19.7333 36.6064
lfingers 7.12502
lthumb 6.59725 66.4836
rfemur -0.609462 4.87478 31.2809
rtibia 27.066
rfoot -8.5425 -0.187497
rtoes 2.68422
lfemur -29.9841 -1.16193 -6.71098
ltibia 18.474
lfoot -3.00642 7.68167
ltoes -7.38766
524
root -25.9988 17.8193 0.227058 867.488 -77.9846 -858.648
lowerback -4.50497 0.764587 7.34603
upperback -1.96042 0.635175 1.2876
thorax 0.567072 0.258865 -2.7568
lowerneck -14.548 -9.79867 -12.7034
upperneck 14.8228 -12.2412 8.60813
head 8.31543 -5.8039 3.39633
rclavicle 1.71452e-015 -1.15295e-014
rhumerus -27.6311 8.4916 -83.4929
rradius 82.9711
rwrist 17.5262
rhand -18.1974 -21.4872
rfingers 7.12502
rthumb 8.07978 -411.313
lclavicle 1.71452e-015 -1.15295e-014
lhumerus -48.4511 6.76835 83.8922
lradius 70.7383
lwrist -1.9522
lhand -19.8375 36.5323
lfingers 7.12502
lthumb 6.49674 66.4126
rfemur -0.951371 4.77716 30.8788
rtibia 28.4714
rfoot -7.87105 -0.250596
rtoes 2.1807
lfemur -29.7499 -1.49501 -7.10218
ltibia 18.5792
lfoot -2.90793 7.45173
ltoes -6.67136
525
root -26.1614 17.8109 0.233653 868.294 -78.1194 -859.588
lowerback -4.45341 0.701887 7.11382
upperback -1.95189 0.570337 1.19129
thorax 0.539755 0.228262 -2.73055
lowerneck -14.5739 -9.74858 -12.6617
upperneck 14.8406 -12.1756 8.58948
head 8.31454 -5.77181 3.39256
rclavicle 8.24956e-015 -9.14409e-015
rhumerus -27.1679 8.75959 -83.4108
rradius 83.8459
rwrist 17.9183
rhand -18.3865 -21.3812
rfingers 7.12502
rthumb 7.89735 -411.214
lclavicle 8.24956e-015 -9.14409e-015
lhumerus -47.7035 6.15638 84.5018
lradius 71.2447
lwrist -2.30765
lhand -19.95 36.4321
lfingers 7.12502
lthumb 6.38811 66.3158
rfemur -1.34941 4.66397 30.4643
rtibia 29.9397
rfoot -7.14407 -0.360784
rtoes 1.7381
lfemur -29.5028 -1.79192 -7.53414
ltibia 18.7665
lfoot -2.83688 7.17904
ltoes -5.94159
